<svg xmlns="http://www.w3.org/2000/svg" viewBox="0 0 100 100">
  <!-- Background Circle -->
  <circle cx="50" cy="50" r="48" fill="#7f9ec3"/>
  
  <!-- ETL Data Flow Symbol -->
  <!-- Database/Storage Icon (left) -->
  <rect x="15" y="35" width="20" height="30" rx="2" fill="#ffffff" opacity="0.9"/>
  <line x1="17" y1="40" x2="33" y2="40" stroke="#7f9ec3" stroke-width="2"/>
  <line x1="17" y1="45" x2="33" y2="45" stroke="#7f9ec3" stroke-width="2"/>
  <line x1="17" y1="50" x2="33" y2="50" stroke="#7f9ec3" stroke-width="2"/>
  
  <!-- Arrow (middle) -->
  <path d="M 40 50 L 55 50" stroke="#ffffff" stroke-width="3" fill="none"/>
  <path d="M 50 45 L 55 50 L 50 55 Z" fill="#ffffff"/>
  
  <!-- Transform/Gear Icon (center) -->
  <circle cx="50" cy="50" r="8" fill="#ffffff"/>
  <circle cx="50" cy="50" r="4" fill="#7f9ec3"/>
  
  <!-- Arrow (middle-right) -->
  <path d="M 60 50 L 75 50" stroke="#ffffff" stroke-width="3" fill="none"/>
  <path d="M 70 45 L 75 50 L 70 55 Z" fill="#ffffff"/>
  
  <!-- Output/Chart Icon (right) -->
  <rect x="78" y="40" width="7" height="20" rx="1" fill="#ffffff" opacity="0.9"/>
  <rect x="70" y="48" width="7" height="12" rx="1" fill="#ffffff" opacity="0.7"/>
  <rect x="62" y="52" width="7" height="8" rx="1" fill="#ffffff" opacity="0.5"/>
</svg>
